<?xml version="1.0" encoding="utf-8"?>
<!-- Generator: Adobe Illustrator 24.0.0, SVG Export Plug-In . SVG Version: 6.00 Build 0)  -->
<svg version="1.1" id="圖層_1" xmlns:v="https://vecta.io/nano"
	 xmlns="http://www.w3.org/2000/svg" xmlns:xlink="http://www.w3.org/1999/xlink" x="0px" y="0px" viewBox="0 0 48 48"
	 style="enable-background:new 0 0 48 48;" xml:space="preserve">
<style type="text/css">
	.st0{clip-path:url(#SVGID_2_);}
	.st1{fill:url(#SVGID_3_);}
	.st2{fill:url(#SVGID_4_);}
	.st3{fill:url(#SVGID_5_);}
	.st4{fill:url(#SVGID_6_);}
	.st5{fill:url(#SVGID_7_);}
</style>
<g>
	<defs>
		<rect id="SVGID_1_" width="48" height="48"/>
	</defs>
	<clipPath id="SVGID_2_">
		<use xlink:href="#SVGID_1_"  style="overflow:visible;"/>
	</clipPath>
	<g class="st0">
		
			<linearGradient id="SVGID_3_" gradientUnits="userSpaceOnUse" x1="1.2575" y1="0.38" x2="32.1605" y2="63.157" gradientTransform="matrix(1 0 0 -1 0 49)">
			<stop  offset="0" style="stop-color:#6BED78"/>
			<stop  offset="0.4047" style="stop-color:#64F29E"/>
			<stop  offset="0.6247" style="stop-color:#54FDF1"/>
			<stop  offset="1" style="stop-color:#51FFFF"/>
		</linearGradient>
		<path class="st1" d="M17,17.2c-0.4-0.3-1-0.3-1.3,0.1l0,0c-0.3,0.4-0.3,1,0.1,1.3c0.2,0.1,0.4,0.2,0.6,0.2c0.3,0,0.5-0.1,0.7-0.4
			l0,0C17.4,18.1,17.4,17.5,17,17.2L17,17.2z"/>
		
			<linearGradient id="SVGID_4_" gradientUnits="userSpaceOnUse" x1="7.494" y1="-2.6901" x2="38.397" y2="60.0869" gradientTransform="matrix(1 0 0 -1 0 49)">
			<stop  offset="0" style="stop-color:#6BED78"/>
			<stop  offset="0.4047" style="stop-color:#64F29E"/>
			<stop  offset="0.6247" style="stop-color:#54FDF1"/>
			<stop  offset="1" style="stop-color:#51FFFF"/>
		</linearGradient>
		<path class="st2" d="M31.6,16.4c-1.7-1.7-4-2.8-6.4-3.1c-2.4-0.3-4.8,0.3-6.8,1.6c-0.4,0.3-0.6,0.9-0.3,1.3
			c0.3,0.4,0.9,0.6,1.3,0.3c3.5-2.2,8-1.7,10.9,1.2c0.2,0.2,0.4,0.3,0.7,0.3s0.5-0.1,0.7-0.3C31.9,17.4,31.9,16.8,31.6,16.4
			L31.6,16.4z"/>
		
			<linearGradient id="SVGID_5_" gradientUnits="userSpaceOnUse" x1="11.3801" y1="-4.603" x2="42.2831" y2="58.174" gradientTransform="matrix(1 0 0 -1 0 49)">
			<stop  offset="0" style="stop-color:#6BED78"/>
			<stop  offset="0.4047" style="stop-color:#64F29E"/>
			<stop  offset="0.6247" style="stop-color:#54FDF1"/>
			<stop  offset="1" style="stop-color:#51FFFF"/>
		</linearGradient>
		<path class="st3" d="M47.7,13.8l-4.2-4.2c-0.4-0.4-1-0.4-1.3,0L23.9,27.8l-9.2-9.2c-0.4-0.4-1-0.4-1.3,0l-4.2,4.2
			C9,23,8.9,23.2,8.9,23.5c0,0.2,0.1,0.5,0.3,0.7l14.1,14.1c0.2,0.2,0.4,0.3,0.7,0.3s0.5-0.1,0.7-0.3l8.6-8.6c0.4-0.4,0.4-1,0-1.3
			c-0.4-0.4-1-0.4-1.3,0l-8,8L11.1,23.5l2.9-2.9l9.2,9.2c0.4,0.4,1,0.4,1.3,0l18.2-18.2l2.9,2.9l-8.9,8.9c-0.4,0.4-0.4,1,0,1.3
			c0.4,0.4,1,0.4,1.3,0l9.6-9.6C48.1,14.8,48.1,14.2,47.7,13.8z"/>
		
			<linearGradient id="SVGID_6_" gradientUnits="userSpaceOnUse" x1="19.7284" y1="-8.7126" x2="50.6314" y2="54.0644" gradientTransform="matrix(1 0 0 -1 0 49)">
			<stop  offset="0" style="stop-color:#6BED78"/>
			<stop  offset="0.4047" style="stop-color:#64F29E"/>
			<stop  offset="0.6247" style="stop-color:#54FDF1"/>
			<stop  offset="1" style="stop-color:#51FFFF"/>
		</linearGradient>
		<path class="st4" d="M35.8,25.7c-0.2-0.2-0.4-0.3-0.7-0.3s-0.5,0.1-0.7,0.3s-0.3,0.4-0.3,0.7s0.1,0.5,0.3,0.7s0.4,0.3,0.7,0.3
			c0.2,0,0.5-0.1,0.7-0.3c0.2-0.2,0.3-0.4,0.3-0.7S36,25.9,35.8,25.7z"/>
		
			<linearGradient id="SVGID_7_" gradientUnits="userSpaceOnUse" x1="9.8085" y1="-3.8294" x2="40.7115" y2="58.9476" gradientTransform="matrix(1 0 0 -1 0 49)">
			<stop  offset="0" style="stop-color:#6BED78"/>
			<stop  offset="0.4047" style="stop-color:#64F29E"/>
			<stop  offset="0.6247" style="stop-color:#54FDF1"/>
			<stop  offset="1" style="stop-color:#51FFFF"/>
		</linearGradient>
		<path class="st5" d="M47.7,29.3l-1.1-1c-1.2-1.1-1.9-2.7-1.9-4.3c0-0.5-0.4-0.9-0.9-1c-0.5,0-1,0.4-1,0.9c0,0,0,0,0,0
			c0,2.2,0.9,4.3,2.5,5.7l0.6,0.5l-2,4.8l-0.8,0c-2.2-0.1-4.3,0.7-5.9,2.3c-1.5,1.5-2.4,3.7-2.3,5.9l0,0.8l-4.8,2l-0.5-0.6
			c-1.5-1.6-3.6-2.5-5.7-2.5s-4.3,0.9-5.7,2.5l-0.5,0.6l-4.8-2l0-0.8c0.1-2.2-0.7-4.3-2.3-5.9C9.2,35.8,7,34.9,4.9,35l-0.8,0l-2-4.8
			l0.6-0.5c1.6-1.5,2.5-3.5,2.5-5.7c0-2.2-0.9-4.3-2.5-5.7l-0.6-0.5l2-4.8l0.8,0c2.2,0.1,4.3-0.7,5.9-2.3C12.2,9.2,13.1,7,13,4.9
			l0-0.8l4.8-2l0.5,0.6c1.5,1.6,3.5,2.5,5.7,2.5c2.2,0,4.3-0.9,5.7-2.5l0.5-0.6l4.8,2l0,0.8c-0.1,1.8,0.5,3.6,1.5,5
			c0.3,0.5,1,0.5,1.4,0.1c0.3-0.3,0.4-0.9,0.1-1.2c-0.8-1.1-1.2-2.4-1.2-3.8L37,3.5c0-0.4-0.2-0.8-0.6-0.9l-6-2.5
			C30-0.1,29.6,0,29.3,0.3l-1,1.1c-1.1,1.2-2.7,1.9-4.3,1.9s-3.2-0.7-4.3-1.9l-1-1.1C18.4,0,18-0.1,17.6,0.1l-6,2.5
			C11.2,2.7,11,3.1,11,3.5l0.1,1.5c0.1,1.6-0.5,3.3-1.7,4.4c-1.2,1.2-2.8,1.8-4.4,1.7L3.5,11c-0.4,0-0.8,0.2-0.9,0.6l-2.5,6
			C-0.1,18,0,18.4,0.3,18.7l1.1,1c1.2,1.1,1.9,2.7,1.9,4.3s-0.7,3.2-1.9,4.3l-1.1,1C0,29.6-0.1,30,0.1,30.4l2.5,6
			C2.7,36.8,3.1,37,3.5,37l1.5-0.1c1.6-0.1,3.3,0.5,4.4,1.7s1.8,2.8,1.7,4.4L11,44.5c0,0.4,0.2,0.8,0.6,0.9l6,2.5
			c0.4,0.2,0.8,0.1,1.1-0.2l1-1.1c1.1-1.2,2.7-1.9,4.3-1.9s3.2,0.7,4.3,1.9l1,1.1c0.2,0.2,0.4,0.3,0.7,0.3c0.1,0,0.2,0,0.4-0.1
			l6-2.5c0.4-0.2,0.6-0.5,0.6-0.9L36.9,43c-0.1-1.6,0.5-3.3,1.7-4.4s2.8-1.8,4.4-1.7l1.5,0.1c0.4,0,0.8-0.2,0.9-0.6l2.5-6
			C48.1,30,48,29.6,47.7,29.3L47.7,29.3z"/>
	</g>
</g>
</svg>
